<?xml version="1.0" encoding="UTF-8"?>
<!DOCTYPE svg PUBLIC "-//W3C//DTD SVG 1.1//EN" "http://www.w3.org/Graphics/SVG/1.1/DTD/svg11.dtd">
<svg xmlns="http://www.w3.org/2000/svg" version="1.1" width="200px" height="300px" style="shape-rendering:geometricPrecision; text-rendering:geometricPrecision; image-rendering:optimizeQuality; fill-rule:evenodd; clip-rule:evenodd" xmlns:xlink="http://www.w3.org/1999/xlink">
<g><path style="opacity:0.29" fill="#b39772" d="M 96.5,106.5 C 95.3744,107.714 94.0411,108.714 92.5,109.5C 89.8003,106.6 86.467,105.266 82.5,105.5C 82.7373,104.209 82.404,103.209 81.5,102.5C 81.6107,101.883 81.944,101.383 82.5,101C 88.4859,99.8367 93.1526,101.67 96.5,106.5 Z"/></g>
<g><path style="opacity:0.531" fill="#805c41" d="M 81.5,102.5 C 82.404,103.209 82.7373,104.209 82.5,105.5C 86.467,105.266 89.8003,106.6 92.5,109.5C 94.0411,108.714 95.3744,107.714 96.5,106.5C 96.5,107.833 96.5,109.167 96.5,110.5C 96.4413,112.722 95.2747,113.722 93,113.5C 90.8121,113.646 89.4788,112.646 89,110.5C 88.6174,111.056 88.1174,111.389 87.5,111.5C 87.5,110.5 87.5,109.5 87.5,108.5C 83.2445,109.546 80.5778,108.046 79.5,104C 79.8361,102.97 80.5028,102.47 81.5,102.5 Z"/></g>
<g><path style="opacity:0.852" fill="#d0a884" d="M 96.5,110.5 C 100.62,111.205 104.287,112.872 107.5,115.5C 105.883,116.038 104.216,116.371 102.5,116.5C 101.666,115.252 100.333,114.585 98.5,114.5C 96.4523,114.672 94.4523,115.005 92.5,115.5C 87.5617,116.3 83.5617,118.633 80.5,122.5C 79.5,122.5 78.5,122.5 77.5,122.5C 79.1272,117.209 82.4605,113.543 87.5,111.5C 88.1174,111.389 88.6174,111.056 89,110.5C 89.4788,112.646 90.8121,113.646 93,113.5C 95.2747,113.722 96.4413,112.722 96.5,110.5 Z"/></g>
<g><path style="opacity:1" fill="#daa774" d="M 107.5,115.5 C 109.924,118.008 111.59,121.008 112.5,124.5C 112.5,125.167 112.5,125.833 112.5,126.5C 112.167,126.5 111.833,126.5 111.5,126.5C 110.833,126.5 110.167,126.5 109.5,126.5C 107.554,124.293 105.388,122.293 103,120.5C 102.722,121.416 102.222,122.082 101.5,122.5C 101.196,121.85 100.863,121.183 100.5,120.5C 102.078,119.702 103.744,119.202 105.5,119C 104.058,118.623 103.058,117.79 102.5,116.5C 104.216,116.371 105.883,116.038 107.5,115.5 Z"/></g>
<g><path style="opacity:1" fill="#e9b47a" d="M 102.5,116.5 C 103.058,117.79 104.058,118.623 105.5,119C 103.744,119.202 102.078,119.702 100.5,120.5C 100.863,121.183 101.196,121.85 101.5,122.5C 100.07,122.579 98.7362,122.246 97.5,121.5C 96.7124,122.77 95.7124,123.77 94.5,124.5C 94.5,123.167 93.8333,122.5 92.5,122.5C 92.5,120.167 92.5,117.833 92.5,115.5C 94.4523,115.005 96.4523,114.672 98.5,114.5C 100.333,114.585 101.666,115.252 102.5,116.5 Z"/></g>
<g><path style="opacity:1" fill="#d69c5f" d="M 92.5,115.5 C 92.5,117.833 92.5,120.167 92.5,122.5C 91.1667,123.5 89.8333,124.5 88.5,125.5C 89.8502,124.35 89.6836,123.683 88,123.5C 86.2806,125.716 84.114,127.383 81.5,128.5C 80.5344,126.604 80.2011,124.604 80.5,122.5C 83.5617,118.633 87.5617,116.3 92.5,115.5 Z"/></g>
<g><path style="opacity:1" fill="#f2b889" d="M 92.5,122.5 C 93.8333,122.5 94.5,123.167 94.5,124.5C 94.5,127.167 94.5,129.833 94.5,132.5C 91.8333,132.5 89.1667,132.5 86.5,132.5C 86.4003,129.892 87.0669,127.558 88.5,125.5C 89.8333,124.5 91.1667,123.5 92.5,122.5 Z"/></g>
<g><path style="opacity:1" fill="#d79e66" d="M 109.5,126.5 C 109.5,127.167 109.5,127.833 109.5,128.5C 108.141,127.993 107.141,126.993 106.5,125.5C 105.707,125.931 104.873,126.265 104,126.5C 102.632,125.297 101.132,124.297 99.5,123.5C 97.2971,126.109 96.2971,129.109 96.5,132.5C 95.8333,133.167 95.1667,133.833 94.5,134.5C 94.5,133.833 94.5,133.167 94.5,132.5C 94.5,129.833 94.5,127.167 94.5,124.5C 95.7124,123.77 96.7124,122.77 97.5,121.5C 98.7362,122.246 100.07,122.579 101.5,122.5C 102.222,122.082 102.722,121.416 103,120.5C 105.388,122.293 107.554,124.293 109.5,126.5 Z"/></g>
<g><path style="opacity:1" fill="#be844b" d="M 109.5,128.5 C 109.5,129.833 109.5,131.167 109.5,132.5C 105.629,132.06 101.962,132.06 98.5,132.5C 97.8333,132.5 97.1667,132.5 96.5,132.5C 96.2971,129.109 97.2971,126.109 99.5,123.5C 101.132,124.297 102.632,125.297 104,126.5C 104.873,126.265 105.707,125.931 106.5,125.5C 107.141,126.993 108.141,127.993 109.5,128.5 Z"/></g>
<g><path style="opacity:1" fill="#af7242" d="M 77.5,122.5 C 78.5,122.5 79.5,122.5 80.5,122.5C 80.2011,124.604 80.5344,126.604 81.5,128.5C 84.114,127.383 86.2806,125.716 88,123.5C 89.6836,123.683 89.8502,124.35 88.5,125.5C 87.0669,127.558 86.4003,129.892 86.5,132.5C 86.5,135.167 86.5,137.833 86.5,140.5C 85.0568,139.665 84.0568,138.332 83.5,136.5C 82.4305,137.91 81.0972,138.91 79.5,139.5C 78.8333,139.5 78.1667,139.5 77.5,139.5C 76.108,137.443 75.4413,135.109 75.5,132.5C 76.5925,129.231 77.2592,125.897 77.5,122.5 Z"/></g>
<g><path style="opacity:0.663" fill="#d19495" d="M 112.5,124.5 C 117.272,126.389 121.605,129.056 125.5,132.5C 126.429,133.689 126.762,135.022 126.5,136.5C 125.222,136.218 124.222,135.551 123.5,134.5C 122.833,134.5 122.167,134.5 121.5,134.5C 118.517,131.93 115.517,129.264 112.5,126.5C 112.5,125.833 112.5,125.167 112.5,124.5 Z"/></g>
<g><path style="opacity:1" fill="#c14770" d="M 111.5,126.5 C 111.833,126.5 112.167,126.5 112.5,126.5C 115.517,129.264 118.517,131.93 121.5,134.5C 117.162,132.669 114.496,134.002 113.5,138.5C 112.5,138.5 111.5,138.5 110.5,138.5C 110.823,134.478 111.156,130.478 111.5,126.5 Z"/></g>
<g><path style="opacity:1" fill="#c73580" d="M 121.5,134.5 C 121.635,137.417 120.968,140.084 119.5,142.5C 117.5,142.5 115.5,142.5 113.5,142.5C 113.5,141.167 113.5,139.833 113.5,138.5C 114.496,134.002 117.162,132.669 121.5,134.5 Z"/></g>
<g><path style="opacity:1" fill="#d59b7b" d="M 86.5,132.5 C 89.1667,132.5 91.8333,132.5 94.5,132.5C 94.5,133.167 94.5,133.833 94.5,134.5C 93.6236,134.369 92.9569,134.702 92.5,135.5C 97.4345,136.662 97.6011,137.996 93,139.5C 92.5172,140.448 92.3505,141.448 92.5,142.5C 90.4597,144.867 89.4597,144.2 89.5,140.5C 88.5,140.5 87.5,140.5 86.5,140.5C 86.5,137.833 86.5,135.167 86.5,132.5 Z"/></g>
<g><path style="opacity:1" fill="#b77d5c" d="M 96.5,132.5 C 97.1667,132.5 97.8333,132.5 98.5,132.5C 100.121,132.787 101.121,133.787 101.5,135.5C 100.675,136.386 99.675,136.719 98.5,136.5C 99.1667,139.167 99.8333,141.833 100.5,144.5C 97.9963,143.361 95.3297,142.694 92.5,142.5C 92.3505,141.448 92.5172,140.448 93,139.5C 97.6011,137.996 97.4345,136.662 92.5,135.5C 92.9569,134.702 93.6236,134.369 94.5,134.5C 95.1667,133.833 95.8333,133.167 96.5,132.5 Z"/></g>
<g><path style="opacity:1" fill="#98613f" d="M 109.5,126.5 C 110.167,126.5 110.833,126.5 111.5,126.5C 111.156,130.478 110.823,134.478 110.5,138.5C 110.167,138.5 109.833,138.5 109.5,138.5C 107.821,138.285 106.821,138.952 106.5,140.5C 104.5,141.833 102.5,143.167 100.5,144.5C 99.8333,141.833 99.1667,139.167 98.5,136.5C 99.675,136.719 100.675,136.386 101.5,135.5C 101.121,133.787 100.121,132.787 98.5,132.5C 101.962,132.06 105.629,132.06 109.5,132.5C 109.5,131.167 109.5,129.833 109.5,128.5C 109.5,127.833 109.5,127.167 109.5,126.5 Z"/></g>
<g><path style="opacity:0.051" fill="#df97b1" d="M 123.5,134.5 C 124.222,135.551 125.222,136.218 126.5,136.5C 129.13,139.468 131.797,142.468 134.5,145.5C 132.955,146.64 131.288,147.64 129.5,148.5C 129.5,146.5 129.5,144.5 129.5,142.5C 124.676,142.112 122.676,139.445 123.5,134.5 Z"/></g>
<g><path style="opacity:1" fill="#d25590" d="M 121.5,134.5 C 122.167,134.5 122.833,134.5 123.5,134.5C 122.676,139.445 124.676,142.112 129.5,142.5C 129.5,144.5 129.5,146.5 129.5,148.5C 127.5,148.5 125.5,148.5 123.5,148.5C 122.833,148.5 122.167,148.5 121.5,148.5C 121.386,146.282 120.72,144.282 119.5,142.5C 120.968,140.084 121.635,137.417 121.5,134.5 Z"/></g>
<g><path style="opacity:1" fill="#782e4a" d="M 109.5,138.5 C 109.833,138.5 110.167,138.5 110.5,138.5C 111.5,138.5 112.5,138.5 113.5,138.5C 113.5,139.833 113.5,141.167 113.5,142.5C 115.5,142.5 117.5,142.5 119.5,142.5C 120.72,144.282 121.386,146.282 121.5,148.5C 117.3,148.19 113.3,148.857 109.5,150.5C 109.115,146.707 109.115,142.707 109.5,138.5 Z"/></g>
<g><path style="opacity:1" fill="#b06c4b" d="M 86.5,140.5 C 87.5,140.5 88.5,140.5 89.5,140.5C 89.4597,144.2 90.4597,144.867 92.5,142.5C 95.3297,142.694 97.9963,143.361 100.5,144.5C 100.279,145.735 99.6119,146.735 98.5,147.5C 95.9135,148.48 93.2469,148.813 90.5,148.5C 88.299,146.29 86.9657,143.624 86.5,140.5 Z"/></g>
<g><path style="opacity:1" fill="#7c4c3b" d="M 109.5,138.5 C 109.115,142.707 109.115,146.707 109.5,150.5C 109.38,151.586 108.713,152.253 107.5,152.5C 105.354,151.106 103.021,150.44 100.5,150.5C 101.918,148.692 103.918,148.025 106.5,148.5C 106.5,145.833 106.5,143.167 106.5,140.5C 106.821,138.952 107.821,138.285 109.5,138.5 Z"/></g>
<g><path style="opacity:1" fill="#9a5664" d="M 77.5,139.5 C 78.1667,139.5 78.8333,139.5 79.5,139.5C 80.209,140.404 81.209,140.737 82.5,140.5C 82.5,143.167 82.5,145.833 82.5,148.5C 81.0821,150.308 79.0821,150.975 76.5,150.5C 74.4727,150.662 72.4727,150.495 70.5,150C 69.4019,149.23 69.4019,148.397 70.5,147.5C 73.4834,145.509 75.8167,142.843 77.5,139.5 Z"/></g>
<g><path style="opacity:1" fill="#753e23" d="M 106.5,140.5 C 106.5,143.167 106.5,145.833 106.5,148.5C 103.918,148.025 101.918,148.692 100.5,150.5C 100.5,151.833 99.8333,152.5 98.5,152.5C 96.3647,150.631 93.6981,149.964 90.5,150.5C 90.5,149.833 90.5,149.167 90.5,148.5C 93.2469,148.813 95.9135,148.48 98.5,147.5C 99.6119,146.735 100.279,145.735 100.5,144.5C 102.5,143.167 104.5,141.833 106.5,140.5 Z"/></g>
<g><path style="opacity:0.09" fill="#e5c7a4" d="M 134.5,145.5 C 135.649,145.791 136.316,146.624 136.5,148C 136.613,149.699 135.947,150.866 134.5,151.5C 130.196,150.869 125.863,150.369 121.5,150C 122.416,149.722 123.082,149.222 123.5,148.5C 125.5,148.5 127.5,148.5 129.5,148.5C 131.288,147.64 132.955,146.64 134.5,145.5 Z"/></g>
<g><path style="opacity:1" fill="#855651" d="M 82.5,148.5 C 84.2821,149.72 86.2821,150.386 88.5,150.5C 88.5,151.833 88.5,153.167 88.5,154.5C 87.1667,155.167 85.8333,155.833 84.5,156.5C 81.8333,154.5 79.1667,152.5 76.5,150.5C 79.0821,150.975 81.0821,150.308 82.5,148.5 Z"/></g>
<g><path style="opacity:1" fill="#954135" d="M 90.5,150.5 C 93.6981,149.964 96.3647,150.631 98.5,152.5C 98.5,153.833 98.5,155.167 98.5,156.5C 98.5,158.5 98.5,160.5 98.5,162.5C 96.5168,162.843 95.1834,162.176 94.5,160.5C 94.5,158.5 94.5,156.5 94.5,154.5C 93.1667,154.5 91.8333,154.5 90.5,154.5C 90.5,153.167 90.5,151.833 90.5,150.5 Z"/></g>
<g><path style="opacity:1" fill="#743830" d="M 86.5,140.5 C 86.9657,143.624 88.299,146.29 90.5,148.5C 90.5,149.167 90.5,149.833 90.5,150.5C 90.5,151.833 90.5,153.167 90.5,154.5C 89.8333,154.5 89.1667,154.5 88.5,154.5C 88.5,153.167 88.5,151.833 88.5,150.5C 86.2821,150.386 84.2821,149.72 82.5,148.5C 82.5,145.833 82.5,143.167 82.5,140.5C 81.209,140.737 80.209,140.404 79.5,139.5C 81.0972,138.91 82.4305,137.91 83.5,136.5C 84.0568,138.332 85.0568,139.665 86.5,140.5 Z"/></g>
<g><path style="opacity:1" fill="#96755c" d="M 70.5,147.5 C 69.4019,148.397 69.4019,149.23 70.5,150C 72.4727,150.495 74.4727,150.662 76.5,150.5C 79.1667,152.5 81.8333,154.5 84.5,156.5C 81.5825,156.635 78.9158,155.968 76.5,154.5C 75.8333,154.5 75.1667,154.5 74.5,154.5C 72.0842,153.032 69.4175,152.365 66.5,152.5C 66.7377,149.931 68.071,148.265 70.5,147.5 Z"/></g>
<g><path style="opacity:1" fill="#987663" d="M 121.5,148.5 C 122.167,148.5 122.833,148.5 123.5,148.5C 123.082,149.222 122.416,149.722 121.5,150C 125.863,150.369 130.196,150.869 134.5,151.5C 134.5,151.833 134.5,152.167 134.5,152.5C 133.292,153.234 131.959,153.567 130.5,153.5C 126.785,153.577 123.119,153.244 119.5,152.5C 116.215,152.21 113.215,152.877 110.5,154.5C 106.723,155.994 102.723,156.661 98.5,156.5C 98.5,155.167 98.5,153.833 98.5,152.5C 99.8333,152.5 100.5,151.833 100.5,150.5C 103.021,150.44 105.354,151.106 107.5,152.5C 108.713,152.253 109.38,151.586 109.5,150.5C 113.3,148.857 117.3,148.19 121.5,148.5 Z"/></g>
<g><path style="opacity:1" fill="#be5c20" d="M 88.5,154.5 C 89.1667,154.5 89.8333,154.5 90.5,154.5C 91.8333,154.5 93.1667,154.5 94.5,154.5C 94.5,156.5 94.5,158.5 94.5,160.5C 92.5,160.5 90.5,160.5 88.5,160.5C 88.5,158.5 88.5,156.5 88.5,154.5 Z"/></g>
<g><path style="opacity:1" fill="#4e3f4f" d="M 119.5,152.5 C 123.119,153.244 126.785,153.577 130.5,153.5C 130.167,154.167 129.833,154.833 129.5,155.5C 127.473,155.338 125.473,155.505 123.5,156C 120.877,158.444 118.21,160.611 115.5,162.5C 112.426,162.873 109.426,163.539 106.5,164.5C 105.859,163.518 105.193,162.518 104.5,161.5C 108.641,159.828 112.641,157.995 116.5,156C 118.063,155.241 119.063,154.074 119.5,152.5 Z"/></g>
<g><path style="opacity:1" fill="#86736c" d="M 129.5,155.5 C 131.048,155.821 131.715,156.821 131.5,158.5C 129.396,158.201 127.396,158.534 125.5,159.5C 124.007,161.67 122.007,163.004 119.5,163.5C 118.432,162.566 117.099,162.232 115.5,162.5C 118.21,160.611 120.877,158.444 123.5,156C 125.473,155.505 127.473,155.338 129.5,155.5 Z"/></g>
<g><path style="opacity:1" fill="#473649" d="M 74.5,154.5 C 75.1667,154.5 75.8333,154.5 76.5,154.5C 76.7216,157.901 78.3883,160.401 81.5,162C 80.4092,163.55 79.0758,164.717 77.5,165.5C 72.4156,162.917 71.4156,159.25 74.5,154.5 Z"/></g>
<g><path style="opacity:1" fill="#c7a686" d="M 131.5,158.5 C 128.957,163.368 124.957,166.368 119.5,167.5C 118.388,168.265 117.721,169.265 117.5,170.5C 115.565,171.15 113.565,171.483 111.5,171.5C 111.281,170.325 111.614,169.325 112.5,168.5C 115.077,167.057 117.41,165.39 119.5,163.5C 122.007,163.004 124.007,161.67 125.5,159.5C 127.396,158.534 129.396,158.201 131.5,158.5 Z"/></g>
<g><path style="opacity:1" fill="#604941" d="M 66.5,152.5 C 69.4175,152.365 72.0842,153.032 74.5,154.5C 71.4156,159.25 72.4156,162.917 77.5,165.5C 78.1001,166.9 79.1001,167.9 80.5,168.5C 78.3618,168.938 76.0285,169.105 73.5,169C 74.3802,170.356 74.7135,171.856 74.5,173.5C 74.1583,174.338 73.4916,174.672 72.5,174.5C 71.1667,174.5 69.8333,174.5 68.5,174.5C 68.5,173.5 68.5,172.5 68.5,171.5C 69.5832,171.539 70.5832,171.873 71.5,172.5C 72.1736,169.524 71.3403,166.857 69,164.5C 68.8184,161.774 68.3184,159.107 67.5,156.5C 66.5832,155.873 65.5832,155.539 64.5,155.5C 64.7822,154.222 65.4489,153.222 66.5,152.5 Z"/></g>
<g><path style="opacity:1" fill="#8c3828" d="M 88.5,154.5 C 88.5,156.5 88.5,158.5 88.5,160.5C 90.5,160.5 92.5,160.5 94.5,160.5C 95.1834,162.176 96.5168,162.843 98.5,162.5C 99.8333,162.5 100.5,163.167 100.5,164.5C 98.5,164.5 96.5,164.5 94.5,164.5C 91.8333,164.5 89.1667,164.5 86.5,164.5C 85.8333,161.833 85.1667,159.167 84.5,156.5C 85.8333,155.833 87.1667,155.167 88.5,154.5 Z"/></g>
<g><path style="opacity:1" fill="#3a1f1e" d="M 110.5,154.5 C 109.097,155.931 107.431,157.098 105.5,158C 104.207,158.49 102.873,158.657 101.5,158.5C 100.848,162.56 102.515,164.56 106.5,164.5C 105.713,166.104 104.38,166.771 102.5,166.5C 102.167,165.5 101.5,164.833 100.5,164.5C 100.5,163.167 99.8333,162.5 98.5,162.5C 98.5,160.5 98.5,158.5 98.5,156.5C 102.723,156.661 106.723,155.994 110.5,154.5 Z"/></g>
<g><path style="opacity:1" fill="#352732" d="M 119.5,152.5 C 119.063,154.074 118.063,155.241 116.5,156C 112.641,157.995 108.641,159.828 104.5,161.5C 105.193,162.518 105.859,163.518 106.5,164.5C 102.515,164.56 100.848,162.56 101.5,158.5C 102.873,158.657 104.207,158.49 105.5,158C 107.431,157.098 109.097,155.931 110.5,154.5C 113.215,152.877 116.215,152.21 119.5,152.5 Z"/></g>
<g><path style="opacity:1" fill="#71412b" d="M 134.5,152.5 C 134.5,153.167 134.833,153.5 135.5,153.5C 135.631,157.285 136.298,160.952 137.5,164.5C 133.799,164.132 131.799,162.132 131.5,158.5C 131.715,156.821 131.048,155.821 129.5,155.5C 129.833,154.833 130.167,154.167 130.5,153.5C 131.959,153.567 133.292,153.234 134.5,152.5 Z"/></g>
<g><path style="opacity:0.741" fill="#6e544c" d="M 135.5,153.5 C 136.779,154.968 138.446,155.635 140.5,155.5C 141.505,159.169 142.505,162.836 143.5,166.5C 141.718,165.28 139.718,164.614 137.5,164.5C 136.298,160.952 135.631,157.285 135.5,153.5 Z"/></g>
<g><path style="opacity:1" fill="#3f2833" d="M 76.5,154.5 C 78.9158,155.968 81.5825,156.635 84.5,156.5C 85.1667,159.167 85.8333,161.833 86.5,164.5C 83.9857,164.754 81.6524,165.587 79.5,167C 80.056,167.383 80.3893,167.883 80.5,168.5C 79.1001,167.9 78.1001,166.9 77.5,165.5C 79.0758,164.717 80.4092,163.55 81.5,162C 78.3883,160.401 76.7216,157.901 76.5,154.5 Z"/></g>
<g><path style="opacity:1" fill="#aa825a" d="M 64.5,155.5 C 65.5832,155.539 66.5832,155.873 67.5,156.5C 68.3184,159.107 68.8184,161.774 69,164.5C 71.3403,166.857 72.1736,169.524 71.5,172.5C 70.5832,171.873 69.5832,171.539 68.5,171.5C 68.1583,170.662 67.4916,170.328 66.5,170.5C 65.892,167.594 64.5587,165.26 62.5,163.5C 61.9644,160.302 62.631,157.635 64.5,155.5 Z"/></g>
<g><path style="opacity:1" fill="#5f4236" d="M 115.5,162.5 C 117.099,162.232 118.432,162.566 119.5,163.5C 117.41,165.39 115.077,167.057 112.5,168.5C 111.614,169.325 111.281,170.325 111.5,171.5C 113.565,171.483 115.565,171.15 117.5,170.5C 113.795,171.863 110.128,173.53 106.5,175.5C 103.731,174.642 101.065,173.642 98.5,172.5C 99.287,170.896 100.62,170.229 102.5,170.5C 102.5,169.167 102.5,167.833 102.5,166.5C 104.38,166.771 105.713,166.104 106.5,164.5C 109.426,163.539 112.426,162.873 115.5,162.5 Z"/></g>
<g><path style="opacity:1" fill="#7c452c" d="M 131.5,158.5 C 131.799,162.132 133.799,164.132 137.5,164.5C 137.799,166.604 137.466,168.604 136.5,170.5C 133.543,171.182 130.543,171.348 127.5,171C 129.321,173.456 129.988,176.289 129.5,179.5C 129.5,180.833 129.5,182.167 129.5,183.5C 128.319,179.681 126.986,176.014 125.5,172.5C 125.5,171.167 124.833,170.5 123.5,170.5C 121.5,170.5 119.5,170.5 117.5,170.5C 117.721,169.265 118.388,168.265 119.5,167.5C 124.957,166.368 128.957,163.368 131.5,158.5 Z"/></g>
<g><path style="opacity:1" fill="#a19695" d="M 57.5,163.5 C 59.1667,163.5 60.8333,163.5 62.5,163.5C 64.5587,165.26 65.892,167.594 66.5,170.5C 66.7148,172.179 66.0481,173.179 64.5,173.5C 63.2825,172.839 61.9492,172.172 60.5,171.5C 60.0576,170.261 59.3909,169.261 58.5,168.5C 57.6993,166.958 57.366,165.292 57.5,163.5 Z"/></g>
<g><path style="opacity:1" fill="#b0560f" d="M 86.5,164.5 C 89.1667,164.5 91.8333,164.5 94.5,164.5C 95.2843,169.84 93.2843,173.506 88.5,175.5C 87.6432,172.957 86.3099,170.623 84.5,168.5C 85.2255,167.133 85.8921,165.8 86.5,164.5 Z"/></g>
<g><path style="opacity:1" fill="#622e19" d="M 58.5,168.5 C 58.7593,170.989 57.7593,172.656 55.5,173.5C 53.9557,173.297 52.6223,172.63 51.5,171.5C 50.6781,173.139 50.0114,174.805 49.5,176.5C 48.6588,175.074 47.6588,173.74 46.5,172.5C 47.5,172.5 48.5,172.5 49.5,172.5C 49.0561,167.282 51.3894,164.616 56.5,164.5C 56.1568,166.483 56.8235,167.817 58.5,168.5 Z"/></g>
<g><path style="opacity:0.882" fill="#8d604b" d="M 57.5,163.5 C 57.366,165.292 57.6993,166.958 58.5,168.5C 56.8235,167.817 56.1568,166.483 56.5,164.5C 51.3894,164.616 49.0561,167.282 49.5,172.5C 48.5,172.5 47.5,172.5 46.5,172.5C 45.8333,172.5 45.1667,172.5 44.5,172.5C 44.8608,168.615 46.1942,165.115 48.5,162C 50,161.833 51.5,161.667 53,161.5C 54.9855,161.569 56.4855,162.235 57.5,163.5 Z"/></g>
<g><path style="opacity:1" fill="#985118" d="M 100.5,164.5 C 101.5,164.833 102.167,165.5 102.5,166.5C 102.5,167.833 102.5,169.167 102.5,170.5C 100.62,170.229 99.287,170.896 98.5,172.5C 98.5,174.167 98.5,175.833 98.5,177.5C 98.7678,179.099 98.4345,180.432 97.5,181.5C 97.7678,179.901 97.4345,178.568 96.5,177.5C 96.3379,175.473 96.5045,173.473 97,171.5C 98.6349,170.274 100.135,168.941 101.5,167.5C 100.873,166.583 100.539,165.583 100.5,164.5 Z"/></g>
<g><path style="opacity:1" fill="#582d1a" d="M 137.5,164.5 C 139.718,164.614 141.718,165.28 143.5,166.5C 143.5,167.167 143.5,167.833 143.5,168.5C 142.167,168.5 140.833,168.5 139.5,168.5C 139.5,169.833 139.5,171.167 139.5,172.5C 137.002,173.884 135.002,175.884 133.5,178.5C 132.311,179.429 130.978,179.762 129.5,179.5C 129.988,176.289 129.321,173.456 127.5,171C 130.543,171.348 133.543,171.182 136.5,170.5C 137.466,168.604 137.799,166.604 137.5,164.5 Z"/></g>
<g><path style="opacity:1" fill="#da700f" d="M 94.5,164.5 C 96.5,164.5 98.5,164.5 100.5,164.5C 100.539,165.583 100.873,166.583 101.5,167.5C 100.135,168.941 98.6349,170.274 97,171.5C 96.5045,173.473 96.3379,175.473 96.5,177.5C 95.596,176.791 95.2627,175.791 95.5,174.5C 93.5,175.167 91.5,175.833 89.5,176.5C 89.7373,177.791 89.404,178.791 88.5,179.5C 88.5,178.167 88.5,176.833 88.5,175.5C 93.2843,173.506 95.2843,169.84 94.5,164.5 Z"/></g>
<g><path style="opacity:1" fill="#43281c" d="M 55.5,173.5 C 56.0998,174.9 57.0998,175.9 58.5,176.5C 56.8333,176.5 55.1667,176.5 53.5,176.5C 51.744,177.552 51.0773,179.219 51.5,181.5C 50.1667,184.167 48.8333,186.833 47.5,189.5C 48.1667,185.167 48.8333,180.833 49.5,176.5C 50.0114,174.805 50.6781,173.139 51.5,171.5C 52.6223,172.63 53.9557,173.297 55.5,173.5 Z"/></g>
<g><path style="opacity:1" fill="#3d2c2c" d="M 86.5,164.5 C 85.8921,165.8 85.2255,167.133 84.5,168.5C 86.3099,170.623 87.6432,172.957 88.5,175.5C 87.8826,175.611 87.3826,175.944 87,176.5C 86.5034,178.81 86.3367,181.143 86.5,183.5C 85.8337,179.979 85.1671,176.313 84.5,172.5C 81.7679,170.966 79.7679,171.633 78.5,174.5C 77.8826,174.611 77.3826,174.944 77,175.5C 76.5831,174.244 75.7498,173.577 74.5,173.5C 74.7135,171.856 74.3802,170.356 73.5,169C 76.0285,169.105 78.3618,168.938 80.5,168.5C 80.3893,167.883 80.056,167.383 79.5,167C 81.6524,165.587 83.9857,164.754 86.5,164.5 Z"/></g>
<g><path style="opacity:1" fill="#826b66" d="M 123.5,170.5 C 124.833,170.5 125.5,171.167 125.5,172.5C 125.5,176.833 125.5,181.167 125.5,185.5C 123.824,184.817 123.157,183.483 123.5,181.5C 123.5,177.833 123.5,174.167 123.5,170.5 Z"/></g>
<g><path style="opacity:1" fill="#1d1513" d="M 139.5,172.5 C 139.5,176.833 139.5,181.167 139.5,185.5C 136.167,185.5 132.833,185.5 129.5,185.5C 129.5,184.833 129.5,184.167 129.5,183.5C 129.5,182.167 129.5,180.833 129.5,179.5C 130.978,179.762 132.311,179.429 133.5,178.5C 135.002,175.884 137.002,173.884 139.5,172.5 Z"/></g>
<g><path style="opacity:1" fill="#343652" d="M 86.5,183.5 C 87.1667,183.5 87.8333,183.5 88.5,183.5C 88.5,184.167 88.5,184.833 88.5,185.5C 87.8333,186.833 87.1667,188.167 86.5,189.5C 84.5,189.5 82.5,189.5 80.5,189.5C 80.5,188.167 79.8333,187.5 78.5,187.5C 78.5,183.167 78.5,178.833 78.5,174.5C 79.7679,171.633 81.7679,170.966 84.5,172.5C 85.1671,176.313 85.8337,179.979 86.5,183.5 Z"/></g>
<g><path style="opacity:1" fill="#1e120e" d="M 53.5,176.5 C 55.1667,176.5 56.8333,176.5 58.5,176.5C 59.6491,176.791 60.3158,177.624 60.5,179C 60.1983,181.4 59.5316,183.566 58.5,185.5C 57.8333,185.5 57.1667,185.5 56.5,185.5C 56.762,184.022 56.4287,182.689 55.5,181.5C 54.914,181.709 54.414,182.043 54,182.5C 53.5045,180.527 53.3379,178.527 53.5,176.5 Z"/></g>
<g><path style="opacity:1" fill="#534a50" d="M 66.5,170.5 C 67.4916,170.328 68.1583,170.662 68.5,171.5C 68.5,172.5 68.5,173.5 68.5,174.5C 69.8333,174.5 71.1667,174.5 72.5,174.5C 73.2376,180.749 70.571,184.416 64.5,185.5C 65.4469,183.266 66.1136,180.932 66.5,178.5C 66.6598,176.645 65.9931,175.312 64.5,174.5C 64.5,174.167 64.5,173.833 64.5,173.5C 66.0481,173.179 66.7148,172.179 66.5,170.5 Z"/></g>
<g><path style="opacity:1" fill="#282634" d="M 117.5,170.5 C 119.5,170.5 121.5,170.5 123.5,170.5C 123.5,174.167 123.5,177.833 123.5,181.5C 122.167,180.167 120.833,178.833 119.5,177.5C 119.631,176.624 119.298,175.957 118.5,175.5C 118.036,177.975 117.036,179.975 115.5,181.5C 114.135,179.409 113.468,177.076 113.5,174.5C 110.373,175.564 107.373,176.897 104.5,178.5C 104.5,179.5 104.5,180.5 104.5,181.5C 103.167,181.5 101.833,181.5 100.5,181.5C 100.843,179.517 100.176,178.183 98.5,177.5C 98.5,175.833 98.5,174.167 98.5,172.5C 101.065,173.642 103.731,174.642 106.5,175.5C 110.128,173.53 113.795,171.863 117.5,170.5 Z"/></g>
<g><path style="opacity:0.876" fill="#9a7558" d="M 143.5,168.5 C 145.728,172.957 147.394,177.624 148.5,182.5C 147.85,182.804 147.183,183.137 146.5,183.5C 145.516,186.428 145.183,189.428 145.5,192.5C 145.665,195.518 145.498,198.518 145,201.5C 144.722,202.416 144.222,203.082 143.5,203.5C 143.5,201.5 143.5,199.5 143.5,197.5C 144.12,191.074 143.453,185.074 141.5,179.5C 141.662,177.473 141.495,175.473 141,173.5C 140.617,172.944 140.117,172.611 139.5,172.5C 139.5,171.167 139.5,169.833 139.5,168.5C 140.833,168.5 142.167,168.5 143.5,168.5 Z"/></g>
<g><path style="opacity:1" fill="#6e4930" d="M 58.5,168.5 C 59.3909,169.261 60.0576,170.261 60.5,171.5C 61.9492,172.172 63.2825,172.839 64.5,173.5C 64.5,173.833 64.5,174.167 64.5,174.5C 63.0941,182.086 62.4274,189.752 62.5,197.5C 62.5,198.167 62.5,198.833 62.5,199.5C 61.6236,199.369 60.9569,199.702 60.5,200.5C 60.3521,205.675 58.0188,209.342 53.5,211.5C 51.5168,211.843 50.1834,211.176 49.5,209.5C 55.2427,208.709 57.5761,205.376 56.5,199.5C 54.8212,199.715 53.8212,199.048 53.5,197.5C 55.1667,197.5 56.8333,197.5 58.5,197.5C 58.5,193.5 58.5,189.5 58.5,185.5C 59.5316,183.566 60.1983,181.4 60.5,179C 60.3158,177.624 59.6491,176.791 58.5,176.5C 57.0998,175.9 56.0998,174.9 55.5,173.5C 57.7593,172.656 58.7593,170.989 58.5,168.5 Z"/></g>
<g><path style="opacity:0.932" fill="#5d3c24" d="M 44.5,172.5 C 45.1667,172.5 45.8333,172.5 46.5,172.5C 47.6588,173.74 48.6588,175.074 49.5,176.5C 48.8333,180.833 48.1667,185.167 47.5,189.5C 47.5,191.5 47.5,193.5 47.5,195.5C 47.5,196.167 47.5,196.833 47.5,197.5C 46.8333,197.5 46.1667,197.5 45.5,197.5C 45.7076,195.08 45.3742,192.747 44.5,190.5C 43.3112,189.571 41.9778,189.238 40.5,189.5C 42.1009,183.966 43.4343,178.3 44.5,172.5 Z"/></g>
<g><path style="opacity:1" fill="#e27615" d="M 96.5,177.5 C 97.4345,178.568 97.7678,179.901 97.5,181.5C 94.8555,183.242 91.8555,183.909 88.5,183.5C 88.5,182.167 88.5,180.833 88.5,179.5C 89.404,178.791 89.7373,177.791 89.5,176.5C 91.5,175.833 93.5,175.167 95.5,174.5C 95.2627,175.791 95.596,176.791 96.5,177.5 Z"/></g>
<g><path style="opacity:1" fill="#7f4f2f" d="M 88.5,175.5 C 88.5,176.833 88.5,178.167 88.5,179.5C 88.5,180.833 88.5,182.167 88.5,183.5C 87.8333,183.5 87.1667,183.5 86.5,183.5C 86.3367,181.143 86.5034,178.81 87,176.5C 87.3826,175.944 87.8826,175.611 88.5,175.5 Z"/></g>
<g><path style="opacity:1" fill="#331422" d="M 119.5,177.5 C 120.833,178.833 122.167,180.167 123.5,181.5C 123.157,183.483 123.824,184.817 125.5,185.5C 125.584,188.327 126.25,190.994 127.5,193.5C 127.5,194.833 127.5,196.167 127.5,197.5C 126.833,197.5 126.167,197.5 125.5,197.5C 123.096,192.281 120.596,192.281 118,197.5C 117.804,195.714 116.971,194.381 115.5,193.5C 114.534,191.604 114.201,189.604 114.5,187.5C 115.822,187.67 116.989,187.337 118,186.5C 118.259,183.413 118.759,180.413 119.5,177.5 Z"/></g>
<g><path style="opacity:1" fill="#201a19" d="M 53.5,176.5 C 53.3379,178.527 53.5045,180.527 54,182.5C 54.414,182.043 54.914,181.709 55.5,181.5C 56.4287,182.689 56.762,184.022 56.5,185.5C 56.6162,188.91 54.9496,190.244 51.5,189.5C 51.5,186.833 51.5,184.167 51.5,181.5C 51.0773,179.219 51.744,177.552 53.5,176.5 Z"/></g>
<g><path style="opacity:1" fill="#2d3356" d="M 115.5,181.5 C 115.771,183.38 115.104,184.713 113.5,185.5C 109.585,185.247 105.919,185.913 102.5,187.5C 101.466,186.313 100.133,185.48 98.5,185C 99.9733,184.29 100.64,183.124 100.5,181.5C 101.833,181.5 103.167,181.5 104.5,181.5C 104.5,180.5 104.5,179.5 104.5,178.5C 107.373,176.897 110.373,175.564 113.5,174.5C 113.468,177.076 114.135,179.409 115.5,181.5 Z"/></g>
<g><path style="opacity:1" fill="#a17b55" d="M 125.5,172.5 C 126.986,176.014 128.319,179.681 129.5,183.5C 129.5,184.167 129.5,184.833 129.5,185.5C 129.5,186.167 129.5,186.833 129.5,187.5C 129.5,188.167 129.5,188.833 129.5,189.5C 129.664,192.187 129.497,194.854 129,197.5C 128.79,195.942 128.29,194.609 127.5,193.5C 126.25,190.994 125.584,188.327 125.5,185.5C 125.5,181.167 125.5,176.833 125.5,172.5 Z"/></g>
<g><path style="opacity:1" fill="#302b28" d="M 139.5,172.5 C 140.117,172.611 140.617,172.944 141,173.5C 141.495,175.473 141.662,177.473 141.5,179.5C 141.5,182.833 141.5,186.167 141.5,189.5C 139.87,191.359 138.204,193.359 136.5,195.5C 133.69,193.039 131.357,190.372 129.5,187.5C 129.5,186.833 129.5,186.167 129.5,185.5C 132.833,185.5 136.167,185.5 139.5,185.5C 139.5,181.167 139.5,176.833 139.5,172.5 Z"/></g>
<g><path style="opacity:1" fill="#2c1325" d="M 78.5,187.5 C 79.8333,187.5 80.5,188.167 80.5,189.5C 78.6921,190.918 78.0254,192.918 78.5,195.5C 78.5,200.833 78.5,206.167 78.5,211.5C 75.9592,211.15 73.6258,211.15 71.5,211.5C 71.2865,209.856 71.6198,208.356 72.5,207C 69.3754,206.456 66.3754,205.623 63.5,204.5C 62.962,202.883 62.6287,201.216 62.5,199.5C 63.8221,199.33 64.9887,199.663 66,200.5C 66.3808,196.348 68.5474,194.015 72.5,193.5C 72.1604,189.869 72.9937,186.536 75,183.5C 75.49,184.793 75.6567,186.127 75.5,187.5C 76.5,187.5 77.5,187.5 78.5,187.5 Z"/></g>
<g><path style="opacity:0.827" fill="#a0764f" d="M 148.5,182.5 C 149.167,185.167 149.833,187.833 150.5,190.5C 151.822,190.67 152.989,190.337 154,189.5C 154.278,190.416 154.778,191.082 155.5,191.5C 154.172,193.719 152.172,195.052 149.5,195.5C 148.789,193.799 147.455,192.799 145.5,192.5C 145.183,189.428 145.516,186.428 146.5,183.5C 147.183,183.137 147.85,182.804 148.5,182.5 Z"/></g>
<g><path style="opacity:1" fill="#452d26" d="M 98.5,177.5 C 100.176,178.183 100.843,179.517 100.5,181.5C 100.64,183.124 99.9733,184.29 98.5,185C 100.133,185.48 101.466,186.313 102.5,187.5C 102.5,188.167 102.5,188.833 102.5,189.5C 103.678,190.999 105.345,191.999 107.5,192.5C 105.257,193.474 102.924,193.808 100.5,193.5C 100.975,190.918 100.308,188.918 98.5,187.5C 95.4164,185.899 92.083,185.232 88.5,185.5C 88.5,184.833 88.5,184.167 88.5,183.5C 91.8555,183.909 94.8555,183.242 97.5,181.5C 98.4345,180.432 98.7678,179.099 98.5,177.5 Z"/></g>
<g><path style="opacity:1" fill="#301c29" d="M 74.5,173.5 C 75.7498,173.577 76.5831,174.244 77,175.5C 77.3826,174.944 77.8826,174.611 78.5,174.5C 78.5,178.833 78.5,183.167 78.5,187.5C 77.5,187.5 76.5,187.5 75.5,187.5C 75.6567,186.127 75.49,184.793 75,183.5C 72.9937,186.536 72.1604,189.869 72.5,193.5C 68.5474,194.015 66.3808,196.348 66,200.5C 64.9887,199.663 63.8221,199.33 62.5,199.5C 62.5,198.833 62.5,198.167 62.5,197.5C 65.2431,197.923 66.5765,196.756 66.5,194C 65.1055,191.321 64.4388,188.488 64.5,185.5C 70.571,184.416 73.2376,180.749 72.5,174.5C 73.4916,174.672 74.1583,174.338 74.5,173.5 Z"/></g>
<g><path style="opacity:1" fill="#ab835c" d="M 88.5,185.5 C 92.083,185.232 95.4164,185.899 98.5,187.5C 98.5,188.833 98.5,190.167 98.5,191.5C 94.5,191.5 90.5,191.5 86.5,191.5C 86.5,190.833 86.5,190.167 86.5,189.5C 87.1667,188.167 87.8333,186.833 88.5,185.5 Z"/></g>
<g><path style="opacity:1" fill="#1f151f" d="M 113.5,185.5 C 113.279,186.735 112.612,187.735 111.5,188.5C 112.577,190.729 113.244,193.063 113.5,195.5C 112.167,195.5 110.833,195.5 109.5,195.5C 109.5,193.5 109.5,191.5 109.5,189.5C 107.167,189.5 104.833,189.5 102.5,189.5C 102.5,188.833 102.5,188.167 102.5,187.5C 105.919,185.913 109.585,185.247 113.5,185.5 Z"/></g>
<g><path style="opacity:0.543" fill="#665f57" d="M 159.5,191.5 C 158.167,191.5 156.833,191.5 155.5,191.5C 154.778,191.082 154.278,190.416 154,189.5C 152.989,190.337 151.822,190.67 150.5,190.5C 153.236,188.096 156.236,186.096 159.5,184.5C 159.5,186.833 159.5,189.167 159.5,191.5 Z"/></g>
<g><path style="opacity:1" fill="#362c2a" d="M 51.5,181.5 C 51.5,184.167 51.5,186.833 51.5,189.5C 54.9496,190.244 56.6162,188.91 56.5,185.5C 57.1667,185.5 57.8333,185.5 58.5,185.5C 58.5,189.5 58.5,193.5 58.5,197.5C 56.8333,197.5 55.1667,197.5 53.5,197.5C 51.7179,196.28 49.7179,195.614 47.5,195.5C 47.5,193.5 47.5,191.5 47.5,189.5C 48.8333,186.833 50.1667,184.167 51.5,181.5 Z"/></g>
<g><path style="opacity:1" fill="#563e31" d="M 64.5,174.5 C 65.9931,175.312 66.6598,176.645 66.5,178.5C 66.1136,180.932 65.4469,183.266 64.5,185.5C 64.4388,188.488 65.1055,191.321 66.5,194C 66.5765,196.756 65.2431,197.923 62.5,197.5C 62.4274,189.752 63.0941,182.086 64.5,174.5 Z"/></g>
<g><path style="opacity:1" fill="#48251f" d="M 80.5,189.5 C 82.5,189.5 84.5,189.5 86.5,189.5C 86.5,190.167 86.5,190.833 86.5,191.5C 86.5,192.833 86.5,194.167 86.5,195.5C 83.8333,195.5 81.1667,195.5 78.5,195.5C 78.0254,192.918 78.6921,190.918 80.5,189.5 Z"/></g>
<g><path style="opacity:1" fill="#79421e" d="M 86.5,191.5 C 90.5,191.5 94.5,191.5 98.5,191.5C 98.5,192.833 98.5,194.167 98.5,195.5C 94.6707,194.931 91.3373,195.598 88.5,197.5C 87.1667,197.5 86.5,196.833 86.5,195.5C 86.5,194.167 86.5,192.833 86.5,191.5 Z"/></g>
<g><path style="opacity:1" fill="#565355" d="M 129.5,187.5 C 131.357,190.372 133.69,193.039 136.5,195.5C 138.204,193.359 139.87,191.359 141.5,189.5C 141.655,196.325 138.322,198.992 131.5,197.5C 131.435,194.572 130.768,191.905 129.5,189.5C 129.5,188.833 129.5,188.167 129.5,187.5 Z"/></g>
<g><path style="opacity:1" fill="#3b2324" d="M 78.5,195.5 C 81.1667,195.5 83.8333,195.5 86.5,195.5C 86.5,196.833 87.1667,197.5 88.5,197.5C 88.5,198.167 88.5,198.833 88.5,199.5C 87.1667,199.5 85.8333,199.5 84.5,199.5C 84.6309,198.624 84.2975,197.957 83.5,197.5C 82.9193,202.341 81.9193,207.007 80.5,211.5C 79.8333,211.5 79.1667,211.5 78.5,211.5C 78.5,206.167 78.5,200.833 78.5,195.5 Z"/></g>
<g><path style="opacity:0.863" fill="#7b4f2b" d="M 40.5,189.5 C 41.9778,189.238 43.3112,189.571 44.5,190.5C 45.3742,192.747 45.7076,195.08 45.5,197.5C 45.5,198.833 45.5,200.167 45.5,201.5C 44.5,201.5 43.5,201.5 42.5,201.5C 42.8432,203.483 42.1765,204.817 40.5,205.5C 40.5,200.167 40.5,194.833 40.5,189.5 Z"/></g>
<g><path style="opacity:1" fill="#252435" d="M 109.5,195.5 C 110.833,195.5 112.167,195.5 113.5,195.5C 115.176,196.183 115.843,197.517 115.5,199.5C 110.651,199.978 105.651,199.978 100.5,199.5C 100.721,198.265 101.388,197.265 102.5,196.5C 104.743,195.526 107.076,195.192 109.5,195.5 Z"/></g>
<g><path style="opacity:1" fill="#281121" d="M 119.5,177.5 C 118.759,180.413 118.259,183.413 118,186.5C 116.989,187.337 115.822,187.67 114.5,187.5C 114.201,189.604 114.534,191.604 115.5,193.5C 116.971,194.381 117.804,195.714 118,197.5C 120.596,192.281 123.096,192.281 125.5,197.5C 125.534,201.63 126.201,205.63 127.5,209.5C 125.5,209.5 123.5,209.5 121.5,209.5C 121.5,208.167 120.833,207.5 119.5,207.5C 119.708,203.915 118.375,201.249 115.5,199.5C 115.843,197.517 115.176,196.183 113.5,195.5C 113.244,193.063 112.577,190.729 111.5,188.5C 112.612,187.735 113.279,186.735 113.5,185.5C 115.104,184.713 115.771,183.38 115.5,181.5C 117.036,179.975 118.036,177.975 118.5,175.5C 119.298,175.957 119.631,176.624 119.5,177.5 Z"/></g>
<g><path style="opacity:0.031" fill="#41281f" d="M 155.5,191.5 C 156.833,191.5 158.167,191.5 159.5,191.5C 157.367,195.63 154.033,198.297 149.5,199.5C 149.5,198.167 149.5,196.833 149.5,195.5C 152.172,195.052 154.172,193.719 155.5,191.5 Z"/></g>
<g><path style="opacity:1" fill="#663218" d="M 98.5,187.5 C 100.308,188.918 100.975,190.918 100.5,193.5C 100.123,195.258 99.4565,196.925 98.5,198.5C 95.2317,199.487 91.8984,199.82 88.5,199.5C 88.5,198.833 88.5,198.167 88.5,197.5C 91.3373,195.598 94.6707,194.931 98.5,195.5C 98.5,194.167 98.5,192.833 98.5,191.5C 98.5,190.167 98.5,188.833 98.5,187.5 Z"/></g>
<g><path style="opacity:1" fill="#78777a" d="M 141.5,179.5 C 143.453,185.074 144.12,191.074 143.5,197.5C 142.778,197.082 142.278,196.416 142,195.5C 141.505,197.473 141.338,199.473 141.5,201.5C 138.833,201.5 136.167,201.5 133.5,201.5C 132.833,200.167 132.167,198.833 131.5,197.5C 138.322,198.992 141.655,196.325 141.5,189.5C 141.5,186.167 141.5,182.833 141.5,179.5 Z"/></g>
<g><path style="opacity:1" fill="#241818" d="M 102.5,189.5 C 104.833,189.5 107.167,189.5 109.5,189.5C 109.5,191.5 109.5,193.5 109.5,195.5C 107.076,195.192 104.743,195.526 102.5,196.5C 101.388,197.265 100.721,198.265 100.5,199.5C 100.167,200.833 99.8333,202.167 99.5,203.5C 99.1667,203.5 98.8333,203.5 98.5,203.5C 95.7531,203.813 93.0865,203.48 90.5,202.5C 89.3881,201.735 88.7214,200.735 88.5,199.5C 91.8984,199.82 95.2317,199.487 98.5,198.5C 99.4565,196.925 100.123,195.258 100.5,193.5C 102.924,193.808 105.257,193.474 107.5,192.5C 105.345,191.999 103.678,190.999 102.5,189.5 Z"/></g>
<g><path style="opacity:1" fill="#1c1014" d="M 125.5,197.5 C 126.167,197.5 126.833,197.5 127.5,197.5C 127.614,199.718 128.28,201.718 129.5,203.5C 130.192,206.936 131.192,210.27 132.5,213.5C 129.167,213.5 125.833,213.5 122.5,213.5C 122.167,213.5 121.833,213.5 121.5,213.5C 120.595,212.298 120.595,210.964 121.5,209.5C 123.5,209.5 125.5,209.5 127.5,209.5C 126.201,205.63 125.534,201.63 125.5,197.5 Z"/></g>
<g><path style="opacity:1" fill="#262a47" d="M 100.5,199.5 C 105.651,199.978 110.651,199.978 115.5,199.5C 115.548,202.292 114.215,204.125 111.5,205C 107.267,205.849 103.267,205.349 99.5,203.5C 99.8333,202.167 100.167,200.833 100.5,199.5 Z"/></g>
<g><path style="opacity:1" fill="#8b7f7e" d="M 47.5,195.5 C 49.7179,195.614 51.7179,196.28 53.5,197.5C 53.8212,199.048 54.8212,199.715 56.5,199.5C 57.5761,205.376 55.2427,208.709 49.5,209.5C 47.5772,205.971 46.9106,201.971 47.5,197.5C 47.5,196.833 47.5,196.167 47.5,195.5 Z"/></g>
<g><path style="opacity:1" fill="#58403a" d="M 84.5,199.5 C 84.5,200.167 84.5,200.833 84.5,201.5C 84.5,204.167 84.5,206.833 84.5,209.5C 85.8333,209.5 87.1667,209.5 88.5,209.5C 88.5,212.167 88.5,214.833 88.5,217.5C 87.2502,217.423 86.4169,216.756 86,215.5C 85.2904,216.973 84.1238,217.64 82.5,217.5C 83.7196,215.718 84.3862,213.718 84.5,211.5C 83.1667,211.5 81.8333,211.5 80.5,211.5C 81.9193,207.007 82.9193,202.341 83.5,197.5C 84.2975,197.957 84.6309,198.624 84.5,199.5 Z"/></g>
<g><path style="opacity:1" fill="#2a2938" d="M 115.5,199.5 C 118.375,201.249 119.708,203.915 119.5,207.5C 115.154,207.334 110.821,207.501 106.5,208C 105.005,209.161 103.505,210.327 102,211.5C 100.97,211.164 100.47,210.497 100.5,209.5C 100.843,207.517 100.176,206.183 98.5,205.5C 98.5,204.833 98.5,204.167 98.5,203.5C 98.8333,203.5 99.1667,203.5 99.5,203.5C 103.267,205.349 107.267,205.849 111.5,205C 114.215,204.125 115.548,202.292 115.5,199.5 Z"/></g>
<g><path style="opacity:1" fill="#9d7754" d="M 129.5,189.5 C 130.768,191.905 131.435,194.572 131.5,197.5C 132.167,198.833 132.833,200.167 133.5,201.5C 133.924,205.268 135.924,207.935 139.5,209.5C 140.867,208.775 142.2,208.108 143.5,207.5C 142.833,210.167 142.167,212.833 141.5,215.5C 140.022,215.762 138.689,215.429 137.5,214.5C 134.546,210.876 131.879,207.209 129.5,203.5C 128.28,201.718 127.614,199.718 127.5,197.5C 127.5,196.167 127.5,194.833 127.5,193.5C 128.29,194.609 128.79,195.942 129,197.5C 129.497,194.854 129.664,192.187 129.5,189.5 Z"/></g>
<g><path style="opacity:0.936" fill="#9f7043" d="M 145.5,192.5 C 147.455,192.799 148.789,193.799 149.5,195.5C 149.5,196.833 149.5,198.167 149.5,199.5C 149.82,202.898 149.487,206.232 148.5,209.5C 148.036,211.975 147.036,213.975 145.5,215.5C 144.167,215.5 142.833,215.5 141.5,215.5C 142.167,212.833 142.833,210.167 143.5,207.5C 143.5,206.167 143.5,204.833 143.5,203.5C 144.222,203.082 144.722,202.416 145,201.5C 145.498,198.518 145.665,195.518 145.5,192.5 Z"/></g>
<g><path style="opacity:1" fill="#413740" d="M 84.5,201.5 C 86.0358,203.025 87.0358,205.025 87.5,207.5C 88.935,205.599 90.6017,205.266 92.5,206.5C 91.2813,210.397 89.948,214.063 88.5,217.5C 88.5,214.833 88.5,212.167 88.5,209.5C 87.1667,209.5 85.8333,209.5 84.5,209.5C 84.5,206.833 84.5,204.167 84.5,201.5 Z"/></g>
<g><path style="opacity:1" fill="#9e9ca1" d="M 143.5,197.5 C 143.5,199.5 143.5,201.5 143.5,203.5C 143.5,204.833 143.5,206.167 143.5,207.5C 142.2,208.108 140.867,208.775 139.5,209.5C 135.924,207.935 133.924,205.268 133.5,201.5C 136.167,201.5 138.833,201.5 141.5,201.5C 141.338,199.473 141.505,197.473 142,195.5C 142.278,196.416 142.778,197.082 143.5,197.5 Z"/></g>
<g><path style="opacity:0.981" fill="#83542d" d="M 45.5,197.5 C 46.1667,197.5 46.8333,197.5 47.5,197.5C 46.9106,201.971 47.5772,205.971 49.5,209.5C 50.1834,211.176 51.5168,211.843 53.5,211.5C 52.8279,213.668 51.3279,215.001 49,215.5C 46.3719,214.365 44.2053,212.698 42.5,210.5C 41.5592,208.95 40.8925,207.284 40.5,205.5C 42.1765,204.817 42.8432,203.483 42.5,201.5C 43.5,201.5 44.5,201.5 45.5,201.5C 45.5,200.167 45.5,198.833 45.5,197.5 Z"/></g>
<g><path style="opacity:1" fill="#5a514f" d="M 100.5,209.5 C 100.47,210.497 100.97,211.164 102,211.5C 103.505,210.327 105.005,209.161 106.5,208C 110.821,207.501 115.154,207.334 119.5,207.5C 118.167,208.833 116.833,210.167 115.5,211.5C 112.183,212.488 108.849,213.488 105.5,214.5C 103.097,213.869 100.764,212.869 98.5,211.5C 97.914,211.709 97.414,212.043 97,212.5C 96.5065,210.866 96.3398,209.199 96.5,207.5C 98.1993,207.527 99.5326,208.194 100.5,209.5 Z"/></g>
<g><path style="opacity:1" fill="#514c4f" d="M 98.5,205.5 C 100.176,206.183 100.843,207.517 100.5,209.5C 99.5326,208.194 98.1993,207.527 96.5,207.5C 96.3398,209.199 96.5065,210.866 97,212.5C 97.414,212.043 97.914,211.709 98.5,211.5C 100.764,212.869 103.097,213.869 105.5,214.5C 105.5,214.833 105.5,215.167 105.5,215.5C 102.785,217.123 99.7847,217.79 96.5,217.5C 96.1564,213.772 95.4898,210.105 94.5,206.5C 95.6888,205.571 97.0222,205.238 98.5,205.5 Z"/></g>
<g><path style="opacity:0.259" fill="#513019" d="M 62.5,199.5 C 62.6287,201.216 62.962,202.883 63.5,204.5C 59.8658,210.635 55.0325,215.635 49,219.5C 44.6387,217.987 42.472,214.987 42.5,210.5C 44.2053,212.698 46.3719,214.365 49,215.5C 51.3279,215.001 52.8279,213.668 53.5,211.5C 58.0188,209.342 60.3521,205.675 60.5,200.5C 60.9569,199.702 61.6236,199.369 62.5,199.5 Z"/></g>
<g><path style="opacity:0.176" fill="#4a2d18" d="M 129.5,203.5 C 131.879,207.209 134.546,210.876 137.5,214.5C 138.689,215.429 140.022,215.762 141.5,215.5C 142.833,215.5 144.167,215.5 145.5,215.5C 145.116,218.05 143.616,219.383 141,219.5C 137.16,218.83 134.326,216.83 132.5,213.5C 131.192,210.27 130.192,206.936 129.5,203.5 Z"/></g>
<g><path style="opacity:1" fill="#2e2931" d="M 84.5,199.5 C 85.8333,199.5 87.1667,199.5 88.5,199.5C 88.7214,200.735 89.3881,201.735 90.5,202.5C 93.0865,203.48 95.7531,203.813 98.5,203.5C 98.5,204.167 98.5,204.833 98.5,205.5C 97.0222,205.238 95.6888,205.571 94.5,206.5C 95.4898,210.105 96.1564,213.772 96.5,217.5C 93.9261,219.024 91.2594,220.358 88.5,221.5C 88.5,220.167 88.5,218.833 88.5,217.5C 89.948,214.063 91.2813,210.397 92.5,206.5C 90.6017,205.266 88.935,205.599 87.5,207.5C 87.0358,205.025 86.0358,203.025 84.5,201.5C 84.5,200.833 84.5,200.167 84.5,199.5 Z"/></g>
<g><path style="opacity:1" fill="#352526" d="M 119.5,207.5 C 120.833,207.5 121.5,208.167 121.5,209.5C 120.595,210.964 120.595,212.298 121.5,213.5C 119.692,214.918 119.025,216.918 119.5,219.5C 119.785,221.288 119.452,222.955 118.5,224.5C 116.722,224.569 114.889,224.903 113,225.5C 111.595,222.381 111.095,219.048 111.5,215.5C 113.929,215.415 115.929,214.415 117.5,212.5C 117.043,211.702 116.376,211.369 115.5,211.5C 116.833,210.167 118.167,208.833 119.5,207.5 Z"/></g>
<g><path style="opacity:0.695" fill="#2c2128" d="M 121.5,213.5 C 121.833,213.5 122.167,213.5 122.5,213.5C 124.044,216.68 125.377,220.013 126.5,223.5C 124.629,223.859 123.129,224.859 122,226.5C 121.61,223.896 120.776,221.562 119.5,219.5C 119.025,216.918 119.692,214.918 121.5,213.5 Z"/></g>
<g><path style="opacity:1" fill="#6c5140" d="M 78.5,211.5 C 79.1667,211.5 79.8333,211.5 80.5,211.5C 81.8333,211.5 83.1667,211.5 84.5,211.5C 84.3862,213.718 83.7196,215.718 82.5,217.5C 78.9682,217.69 75.6348,217.023 72.5,215.5C 72.1667,215.5 71.8333,215.5 71.5,215.5C 71.5,214.167 71.5,212.833 71.5,211.5C 73.6258,211.15 75.9592,211.15 78.5,211.5 Z"/></g>
<g><path style="opacity:0.834" fill="#312a2b" d="M 71.5,215.5 C 71.8333,215.5 72.1667,215.5 72.5,215.5C 73.5819,217.339 74.4153,219.339 75,221.5C 75.5556,219.405 76.0556,219.238 76.5,221C 75.209,223.371 74.209,225.871 73.5,228.5C 72.5832,229.127 71.5832,229.461 70.5,229.5C 70.5401,224.807 70.8734,220.141 71.5,215.5 Z"/></g>
<g><path style="opacity:1" fill="#271d1e" d="M 115.5,211.5 C 116.376,211.369 117.043,211.702 117.5,212.5C 115.929,214.415 113.929,215.415 111.5,215.5C 109.667,217.022 108.667,219.022 108.5,221.5C 110.413,223.773 111.413,226.439 111.5,229.5C 109.856,229.286 108.356,229.62 107,230.5C 106.998,227.949 106.164,225.949 104.5,224.5C 104.5,224.167 104.5,223.833 104.5,223.5C 105.166,220.875 106.833,218.375 109.5,216C 108.207,215.51 106.873,215.343 105.5,215.5C 105.5,215.167 105.5,214.833 105.5,214.5C 108.849,213.488 112.183,212.488 115.5,211.5 Z"/></g>
<g><path style="opacity:1" fill="#382d2b" d="M 72.5,215.5 C 75.6348,217.023 78.9682,217.69 82.5,217.5C 84.1238,217.64 85.2904,216.973 86,215.5C 86.4169,216.756 87.2502,217.423 88.5,217.5C 88.5,218.833 88.5,220.167 88.5,221.5C 89.5511,222.222 90.2178,223.222 90.5,224.5C 87.3377,227.13 84.3377,226.797 81.5,223.5C 80.5481,225.045 80.2148,226.712 80.5,228.5C 77.9471,229.539 75.7804,231.206 74,233.5C 72.9887,232.663 71.8221,232.33 70.5,232.5C 70.5,231.5 70.5,230.5 70.5,229.5C 71.5832,229.461 72.5832,229.127 73.5,228.5C 74.209,225.871 75.209,223.371 76.5,221C 76.0556,219.238 75.5556,219.405 75,221.5C 74.4153,219.339 73.5819,217.339 72.5,215.5 Z"/></g>
<g><path style="opacity:1" fill="#181012" d="M 105.5,215.5 C 106.873,215.343 108.207,215.51 109.5,216C 106.833,218.375 105.166,220.875 104.5,223.5C 99.4087,222.125 96.7421,224.125 96.5,229.5C 95.1751,230.953 94.3418,230.619 94,228.5C 93.1751,226.299 93.6751,224.466 95.5,223C 94.9535,222.075 94.2868,221.242 93.5,220.5C 92.4793,221.901 91.4793,223.235 90.5,224.5C 90.2178,223.222 89.5511,222.222 88.5,221.5C 91.2594,220.358 93.9261,219.024 96.5,217.5C 99.7847,217.79 102.785,217.123 105.5,215.5 Z"/></g>
<g><path style="opacity:0.97" fill="#0d0c0d" d="M 96.5,229.5 C 95.8505,231.435 95.5172,233.435 95.5,235.5C 93.1902,239.786 92.1902,239.452 92.5,234.5C 91.1779,234.33 90.0113,234.663 89,235.5C 88.2917,234.619 87.4584,233.953 86.5,233.5C 88.3264,231.853 89.6597,229.853 90.5,227.5C 90.5,226.5 90.5,225.5 90.5,224.5C 91.4793,223.235 92.4793,221.901 93.5,220.5C 94.2868,221.242 94.9535,222.075 95.5,223C 93.6751,224.466 93.1751,226.299 94,228.5C 94.3418,230.619 95.1751,230.953 96.5,229.5 Z"/></g>
<g><path style="opacity:1" fill="#2c2220" d="M 111.5,215.5 C 111.095,219.048 111.595,222.381 113,225.5C 114.889,224.903 116.722,224.569 118.5,224.5C 119.452,222.955 119.785,221.288 119.5,219.5C 120.776,221.562 121.61,223.896 122,226.5C 123.129,224.859 124.629,223.859 126.5,223.5C 126.5,225.833 126.5,228.167 126.5,230.5C 125.833,230.5 125.167,230.5 124.5,230.5C 121.714,229.95 118.881,229.617 116,229.5C 112.988,231.607 109.654,233.273 106,234.5C 104.624,234.316 103.791,233.649 103.5,232.5C 104.478,232.189 105.145,231.522 105.5,230.5C 104.652,228.591 104.318,226.591 104.5,224.5C 106.164,225.949 106.998,227.949 107,230.5C 108.356,229.62 109.856,229.286 111.5,229.5C 111.413,226.439 110.413,223.773 108.5,221.5C 108.667,219.022 109.667,217.022 111.5,215.5 Z"/></g>
<g><path style="opacity:1" fill="#110f0c" d="M 90.5,227.5 C 89.6597,229.853 88.3264,231.853 86.5,233.5C 87.6205,237.087 88.6205,240.753 89.5,244.5C 90.0102,247.388 89.3435,249.721 87.5,251.5C 87.0825,250.778 86.4158,250.278 85.5,250C 86.1667,249.667 86.8333,249.333 87.5,249C 86.5769,246.959 86.2436,244.792 86.5,242.5C 84.5,242.5 82.5,242.5 80.5,242.5C 78.1667,242.5 75.8333,242.5 73.5,242.5C 73.4431,241.391 73.1098,240.391 72.5,239.5C 76.2032,238.881 80.2032,238.548 84.5,238.5C 84.4832,235.08 84.3165,231.746 84,228.5C 86.0408,227.577 88.2075,227.244 90.5,227.5 Z"/></g>
<g><path style="opacity:0.747" fill="#362318" d="M 104.5,223.5 C 104.5,223.833 104.5,224.167 104.5,224.5C 104.318,226.591 104.652,228.591 105.5,230.5C 105.145,231.522 104.478,232.189 103.5,232.5C 102.791,231.596 101.791,231.263 100.5,231.5C 98.8007,231.473 97.4674,230.806 96.5,229.5C 96.7421,224.125 99.4087,222.125 104.5,223.5 Z"/></g>
<g><path style="opacity:1" fill="#231e19" d="M 80.5,228.5 C 82.369,230.635 83.0356,233.302 82.5,236.5C 79.7814,236.397 77.1147,236.731 74.5,237.5C 73.1331,236.775 71.7997,236.108 70.5,235.5C 70.5,234.5 70.5,233.5 70.5,232.5C 71.8221,232.33 72.9887,232.663 74,233.5C 75.7804,231.206 77.9471,229.539 80.5,228.5 Z"/></g>
<g><path style="opacity:1" fill="#221b18" d="M 124.5,230.5 C 116.663,233.032 108.996,235.698 101.5,238.5C 101.702,236.05 101.369,233.717 100.5,231.5C 101.791,231.263 102.791,231.596 103.5,232.5C 103.791,233.649 104.624,234.316 106,234.5C 109.654,233.273 112.988,231.607 116,229.5C 118.881,229.617 121.714,229.95 124.5,230.5 Z"/></g>
<g><path style="opacity:1" fill="#191411" d="M 124.5,230.5 C 125.167,230.5 125.833,230.5 126.5,230.5C 126.5,231.167 126.5,231.833 126.5,232.5C 123.902,233.82 121.235,235.154 118.5,236.5C 117.531,238.617 117.864,240.617 119.5,242.5C 115.317,242.863 111.317,242.196 107.5,240.5C 106.584,240.543 105.917,240.876 105.5,241.5C 103.878,240.878 102.545,239.878 101.5,238.5C 108.996,235.698 116.663,233.032 124.5,230.5 Z"/></g>
<g><path style="opacity:0.634" fill="#080706" d="M 86.5,233.5 C 87.4584,233.953 88.2917,234.619 89,235.5C 90.0113,234.663 91.1779,234.33 92.5,234.5C 92.1902,239.452 93.1902,239.786 95.5,235.5C 94.3183,239.021 92.3183,242.021 89.5,244.5C 88.6205,240.753 87.6205,237.087 86.5,233.5 Z"/></g>
<g><path style="opacity:0.682" fill="#0a0908" d="M 126.5,232.5 C 126.724,237.61 124.724,241.61 120.5,244.5C 120.672,243.508 120.338,242.842 119.5,242.5C 117.864,240.617 117.531,238.617 118.5,236.5C 121.235,235.154 123.902,233.82 126.5,232.5 Z"/></g>
<g><path style="opacity:0.928" fill="#191614" d="M 90.5,224.5 C 90.5,225.5 90.5,226.5 90.5,227.5C 88.2075,227.244 86.0408,227.577 84,228.5C 84.3165,231.746 84.4832,235.08 84.5,238.5C 80.2032,238.548 76.2032,238.881 72.5,239.5C 70.8958,238.713 70.2291,237.38 70.5,235.5C 71.7997,236.108 73.1331,236.775 74.5,237.5C 77.1147,236.731 79.7814,236.397 82.5,236.5C 83.0356,233.302 82.369,230.635 80.5,228.5C 80.2148,226.712 80.5481,225.045 81.5,223.5C 84.3377,226.797 87.3377,227.13 90.5,224.5 Z"/></g>
<g><path style="opacity:0.997" fill="#37302a" d="M 119.5,242.5 C 120.338,242.842 120.672,243.508 120.5,244.5C 120.5,247.167 120.5,249.833 120.5,252.5C 119.833,252.5 119.167,252.5 118.5,252.5C 118.5,249.833 118.5,247.167 118.5,244.5C 114.653,244.381 110.986,245.047 107.5,246.5C 107.5,248.5 107.5,250.5 107.5,252.5C 107.5,253.833 107.5,255.167 107.5,256.5C 109.199,256.527 110.533,257.194 111.5,258.5C 111.649,259.552 111.483,260.552 111,261.5C 109.989,260.663 108.822,260.33 107.5,260.5C 105.544,254.588 104.877,248.255 105.5,241.5C 105.917,240.876 106.584,240.543 107.5,240.5C 111.317,242.196 115.317,242.863 119.5,242.5 Z"/></g>
<g><path style="opacity:0.993" fill="#2a221b" d="M 73.5,242.5 C 75.8333,242.5 78.1667,242.5 80.5,242.5C 81.4897,245.151 82.4897,247.817 83.5,250.5C 83.4573,251.416 83.1239,252.083 82.5,252.5C 82.5,251.167 81.8333,250.5 80.5,250.5C 78.4726,248.153 75.806,246.819 72.5,246.5C 73.2341,245.292 73.5674,243.959 73.5,242.5 Z"/></g>
<g><path style="opacity:0.649" fill="#191613" d="M 80.5,242.5 C 82.5,242.5 84.5,242.5 86.5,242.5C 86.2436,244.792 86.5769,246.959 87.5,249C 86.8333,249.333 86.1667,249.667 85.5,250C 86.4158,250.278 87.0825,250.778 87.5,251.5C 86.4782,253.855 84.8116,255.522 82.5,256.5C 82.5,255.833 82.5,255.167 82.5,254.5C 82.5,253.833 82.5,253.167 82.5,252.5C 83.1239,252.083 83.4573,251.416 83.5,250.5C 82.4897,247.817 81.4897,245.151 80.5,242.5 Z"/></g>
<g><path style="opacity:1" fill="#55493c" d="M 118.5,252.5 C 116.633,252.045 114.8,251.378 113,250.5C 111.2,251.378 109.367,252.045 107.5,252.5C 107.5,250.5 107.5,248.5 107.5,246.5C 110.986,245.047 114.653,244.381 118.5,244.5C 118.5,247.167 118.5,249.833 118.5,252.5 Z"/></g>
<g><path style="opacity:0.831" fill="#584f46" d="M 72.5,246.5 C 75.806,246.819 78.4726,248.153 80.5,250.5C 76.9707,252.423 72.9707,253.089 68.5,252.5C 68.5,251.5 68.5,250.5 68.5,249.5C 70.0301,248.789 71.3634,247.789 72.5,246.5 Z"/></g>
<g><path style="opacity:0.98" fill="#322b25" d="M 68.5,249.5 C 68.5,250.5 68.5,251.5 68.5,252.5C 72.9707,253.089 76.9707,252.423 80.5,250.5C 81.8333,250.5 82.5,251.167 82.5,252.5C 82.5,253.167 82.5,253.833 82.5,254.5C 76.8333,254.5 71.1667,254.5 65.5,254.5C 64.9033,254.265 64.5699,253.765 64.5,253C 65.4098,251.251 66.7431,250.084 68.5,249.5 Z"/></g>
<g><path style="opacity:0.408" fill="#1b1614" d="M 65.5,254.5 C 71.1667,254.5 76.8333,254.5 82.5,254.5C 82.5,255.167 82.5,255.833 82.5,256.5C 79.4373,256.863 76.4373,257.53 73.5,258.5C 70.4563,257.645 67.7896,256.312 65.5,254.5 Z"/></g>
<g><path style="opacity:0.965" fill="#5d544c" d="M 118.5,252.5 C 119.167,252.5 119.833,252.5 120.5,252.5C 120.5,253.167 120.5,253.833 120.5,254.5C 120.5,255.833 120.5,257.167 120.5,258.5C 117.5,258.5 114.5,258.5 111.5,258.5C 110.533,257.194 109.199,256.527 107.5,256.5C 107.5,255.167 107.5,253.833 107.5,252.5C 109.367,252.045 111.2,251.378 113,250.5C 114.8,251.378 116.633,252.045 118.5,252.5 Z"/></g>
<g><path style="opacity:0.325" fill="#2a2422" d="M 120.5,254.5 C 122.308,255.918 122.975,257.918 122.5,260.5C 119.072,261.474 115.572,262.141 112,262.5C 110.014,262.431 108.514,261.765 107.5,260.5C 108.822,260.33 109.989,260.663 111,261.5C 111.483,260.552 111.649,259.552 111.5,258.5C 114.5,258.5 117.5,258.5 120.5,258.5C 120.5,257.167 120.5,255.833 120.5,254.5 Z"/></g>
</svg>
